<svg width="1382" height="886" viewBox="0 0 1382 886" fill="none" xmlns="http://www.w3.org/2000/svg">
<path d="M111.8 0.0437906C111.8 0.343791 113.3 4.04379 115.2 8.34379C117.1 12.6438 136.8 57.9438 159.1 109.144C262.7 347.044 277 378.144 302.1 419.144C344.4 488.344 393.3 528.444 454.3 544.144C476.7 549.844 486.7 551.144 511.8 551.144C537.4 551.144 548.1 549.544 567 543.044C589.7 535.244 605.5 526.344 632.8 506.144C663.4 483.444 672.2 479.344 690.8 479.344C709.4 479.344 718.2 483.444 748.8 506.144C776.1 526.344 791.9 535.244 814.6 543.044C833.5 549.544 844.2 551.144 869.8 551.144C894.9 551.144 904.9 549.844 927.3 544.144C988 528.544 1037.3 488.244 1079.1 419.944C1104.5 378.244 1117.9 349.244 1222.3 109.644C1244.7 58.2438 1264.5 12.6438 1266.4 8.24379C1268.3 3.94379 1269.7 0.243791 1269.5 0.0437906C1269.4 -0.156209 1165.3 55.5438 1038.3 123.844C911.2 192.044 806.2 248.344 804.7 248.944C802.4 249.844 798.4 246.844 746.5 205.744L690.8 161.544L635.3 205.544C604.7 229.844 579.3 249.644 578.7 249.644C578 249.644 568 244.544 556.4 238.244C513.5 215.144 118.2 2.84379 115.1 1.24379C113.3 0.343791 111.8 -0.156209 111.8 0.0437906ZM493.3 388.144C551.6 414.944 599.5 437.044 599.8 437.344C600.6 438.144 596.7 454.844 594.3 460.844C587 478.844 571.2 492.144 550.8 497.744C540.1 500.744 517.5 501.444 504.8 499.244C462.1 491.744 427.7 463.544 406.4 418.544C399.6 403.944 396.2 393.944 388.2 363.644C384.6 350.144 381.5 338.544 381.3 337.844C380.7 336.244 370.5 331.644 493.3 388.144ZM1000.3 337.844C1000.1 338.544 997.2 349.344 993.9 361.744C985.9 391.944 981.6 404.944 975.2 418.544C953.8 463.644 919.5 491.744 876.8 499.244C864.1 501.444 841.5 500.744 830.8 497.744C810.4 492.144 794.6 478.844 787.3 460.844C784.9 454.844 781 438.144 781.8 437.344C782.3 436.944 1000 336.744 1000.5 336.644C1000.6 336.644 1000.5 337.244 1000.3 337.844Z" fill="black"/>
<path d="M972.8 716.344C966.1 717.144 956.2 720.644 950.3 724.144C944.4 727.544 933.8 737.944 933.8 740.044C933.9 740.644 937.4 744.944 941.8 749.644L949.6 758.144L954.4 753.444C961 746.844 966.4 744.344 976 743.844C991.1 742.944 1000.8 750.744 1000.8 763.744C1000.8 774.944 997.6 779.844 981.8 792.644C965.8 805.544 962.6 810.944 962.4 824.644L962.3 833.144L970.8 833.444C975.5 833.644 981.1 833.544 983.3 833.144L987.3 832.544L987.4 827.744C987.5 820.544 991.3 814.844 1001.6 806.344C1015.2 795.144 1021.3 788.444 1025.3 780.344C1035.7 759.044 1030.1 735.844 1011.6 724.044C1002.8 718.444 984.4 714.744 972.8 716.344Z" fill="black"/>
<path d="M260.2 800.244C241 845.744 225.2 883.344 225 883.744C224.8 884.244 231.3 884.644 239.5 884.644H254.3L262.8 863.644L271.2 842.644H306.9H342.6L347.8 855.344C350.7 862.444 354.5 871.744 356.3 876.144L359.6 884.144L375.3 884.444C384.2 884.544 390.8 884.344 390.6 883.844C390.5 883.344 374.6 845.744 355.4 800.244L320.5 717.644H307.8H295.1L260.2 800.244ZM319.3 785.544C325.7 801.144 330.7 814.044 330.5 814.244C330.3 814.544 319.5 814.544 306.5 814.444L283 814.144L294 787.644C300 773.044 305.4 760.044 305.9 758.744C306.4 757.444 307 756.544 307.2 756.744C307.4 756.944 312.9 769.944 319.3 785.544Z" fill="black"/>
<path d="M834.5 720.344C833.3 722.644 777.5 854.344 767.7 877.844L764.9 884.644H779.7H794.4L802.9 863.844L811.3 843.144L847.1 842.844L882.9 842.644L884.2 845.844C885 847.644 888.8 857.144 892.8 866.844L900 884.644H915.4C923.9 884.644 930.8 884.444 930.8 884.144C930.8 883.944 915.1 846.444 895.9 800.944L860.9 718.144L848.4 717.844L835.9 717.544L834.5 720.344ZM860.3 787.444C866.2 801.944 870.8 813.944 870.6 814.244C870.3 814.444 859.5 814.544 846.6 814.444L823.1 814.144L835.1 785.244C846.1 758.844 847.2 756.644 848.3 758.744C849 760.044 854.4 772.944 860.3 787.444Z" fill="black"/>
<path d="M1086.1 718.344L1071.8 718.744V801.544V884.344L1077.9 885.044C1090.1 886.244 1128.2 885.744 1136.5 884.144C1158.7 879.944 1172.5 869.044 1177.9 851.544C1181.4 840.444 1180 822.744 1175 814.744C1170.4 807.244 1162.7 801.244 1153.9 798.144L1150.3 796.944L1154.4 794.844C1160.1 791.944 1167.2 784.744 1170.2 778.844C1173.4 772.544 1175.2 762.044 1174.5 754.644C1172.6 736.744 1161.4 724.944 1141.6 720.144C1134.8 718.444 1111.3 717.644 1086.1 718.344ZM1132 747.244C1141.4 750.444 1146.8 759.444 1145.3 769.344C1144.1 777.644 1140.8 781.944 1132.8 785.544C1129 787.244 1126.2 787.644 1114.6 787.644H1100.8V767.344C1100.8 756.144 1101.1 746.644 1101.5 746.344C1102.9 744.944 1127.3 745.644 1132 747.244ZM1135.6 815.144C1145.2 818.044 1150.7 825.344 1150.8 835.244C1150.8 845.144 1144.6 853.344 1134.3 856.744C1130.1 858.244 1105.8 858.644 1102.6 857.444C1101 856.744 1100.8 854.744 1100.8 835.144V813.644H1115.6C1126 813.644 1132 814.144 1135.6 815.144Z" fill="black"/>
<path d="M0.9 721.844C1.4 723.644 12.5 760.944 25.6 804.644L49.4 884.144L63.4 884.444L77.3 884.744L96.8 825.244C107.5 792.544 116.6 766.044 116.9 766.444C117.2 766.844 126.4 793.544 137.3 825.844L157.1 884.644H170.7H184.4L207.8 802.844C220.6 757.944 231.4 720.544 231.6 719.844C231.9 718.944 228.8 718.644 217.9 718.644H203.9L202.4 723.844C201.5 726.744 194.3 752.544 186.3 781.144C178.3 809.744 171.4 833.944 171 834.944C170.5 836.144 164.1 817.244 151.4 777.644L132.5 718.644H117.9H103.3L84.9 777.644C74.8 810.144 66.4 836.544 66.2 836.344C66.1 836.244 59 811.144 50.4 780.644C41.7 750.144 34.2 723.644 33.7 721.844L32.6 718.644H16.3H0L0.9 721.844Z" fill="black"/>
<path d="M413.8 801.644V884.644H427.8H441.8L442 827.544L442.3 770.444L487.7 827.544L533 884.644H544.9H556.8V801.644V718.644H542.8H528.8V776.244V833.844L483.2 776.244L437.7 718.644H425.7H413.8V801.644Z" fill="black"/>
<path d="M599.8 801.644V884.644H613.3H626.8L627 827.444L627.3 770.244L672.8 827.444L718.2 884.644H730H741.8V801.644V718.644H728.3H714.8L714.6 776.344L714.3 834.144L668.8 776.644L623.3 719.144L611.5 718.844L599.8 718.544V801.644Z" fill="black"/>
<path d="M1215.8 801.644V884.644H1265.3H1314.8V871.144V857.644H1279.8H1244.8V836.144V814.644H1274.8H1304.8V801.144V787.644L1275.1 787.444L1245.3 787.144L1245 766.344L1244.8 745.644H1278.3H1311.8V732.144V718.644H1263.8H1215.8V801.644Z" fill="black"/>
<path d="M1348.8 773.144V827.644H1363.3H1377.8V773.144V718.644H1363.3H1348.8V773.144Z" fill="black"/>
<path d="M968.3 851.044C966.6 851.744 963.8 853.944 962.1 855.944C951.7 867.844 959.9 885.644 975.7 885.644C984.3 885.644 990.6 880.744 992.8 872.444C996.8 857.944 982 845.044 968.3 851.044Z" fill="black"/>
<path d="M1356.6 850.944C1346.1 855.844 1342.4 867.944 1348.5 877.344C1352.1 882.944 1357.2 885.644 1364 885.644C1380.8 885.644 1387.8 864.044 1374.5 853.344C1371.5 850.844 1369.7 850.244 1365 849.944C1361.9 849.844 1358.1 850.244 1356.6 850.944Z" fill="black"/>
</svg>
