<svg width="24" height="24" viewBox="0 0 24 24" fill="none" xmlns="http://www.w3.org/2000/svg">
<path d="M16.7104 7.09229L16.7103 7.09225L16.7066 7.10122L16.7065 7.10126L16.7065 7.1013L16.7065 7.10136L16.7062 7.10211L16.7044 7.10628L16.6966 7.12458C16.6896 7.1411 16.6788 7.16614 16.6643 7.19891C16.6355 7.26446 16.5924 7.36084 16.5361 7.48182C16.4233 7.72397 16.2581 8.06355 16.0498 8.45082C15.6323 9.22671 15.054 10.17 14.3892 10.9071C14.2074 11.0815 14.0851 11.1896 13.9947 11.2575V7.45636C13.9947 7.20274 13.971 6.88586 13.7932 6.63303C13.5811 6.33137 13.2545 6.25 12.9603 6.25H9.86043C9.27506 6.25 8.86485 6.70122 8.86485 7.19864C8.86485 7.46272 8.97599 7.65877 9.07422 7.7947C9.11979 7.85777 9.17057 7.91847 9.21129 7.96714L9.21449 7.97097C9.25912 8.02431 9.2979 8.07072 9.33628 8.12155C9.46843 8.29659 9.62077 8.55323 9.64224 9.08873V11.9236C9.64224 11.9679 9.64159 12.0078 9.64042 12.0438C9.59564 12.005 9.5453 11.9574 9.48965 11.8999C9.25968 11.6626 8.98366 11.3042 8.6882 10.8461C8.09907 9.93254 7.46762 8.67715 6.99933 7.33894L6.99936 7.33893L6.9973 7.33325C6.89695 7.05723 6.76883 6.7667 6.53856 6.55695C6.28238 6.3236 5.9718 6.25 5.64311 6.25H3.6705C3.32733 6.25 3.00196 6.32884 2.77073 6.56439C2.53906 6.80039 2.5 7.09436 2.5 7.29409C2.5 7.49424 2.5579 7.80402 2.66116 8.1753C2.76849 8.56119 2.9359 9.05213 3.1795 9.62913C3.66668 10.7831 4.46233 12.2902 5.70294 13.9996C7.39921 16.4026 9.83198 17.75 12.1149 17.75C12.7413 17.75 13.2324 17.6883 13.5645 17.4694C13.9783 17.1968 14.0239 16.7811 14.0239 16.4959V14.7586C14.0239 14.6918 14.0259 14.64 14.0291 14.6C14.0323 14.6 14.0356 14.6 14.0389 14.6C14.122 14.6 14.4916 14.6159 15.6455 15.7013C15.97 16.0203 16.2271 16.2959 16.4438 16.5326C16.4858 16.5784 16.5268 16.6234 16.567 16.6675C16.7304 16.8468 16.8793 17.0102 17.0153 17.1448C17.187 17.3147 17.3691 17.471 17.5832 17.5814C17.8078 17.6972 18.0429 17.75 18.3048 17.75H20.2677C20.6107 17.75 20.9969 17.6684 21.2567 17.375C21.5344 17.0613 21.5419 16.6539 21.4384 16.2917L21.4361 16.2838L21.4336 16.2761C21.3194 15.9206 21.0723 15.5312 20.7779 15.1395C20.4771 14.7393 20.0946 14.2953 19.67 13.8254C19.4297 13.5497 19.1345 13.2666 18.8868 13.0291L18.8707 13.0137C18.5964 12.7506 18.4142 12.5723 18.3408 12.4708L18.3333 12.4604L18.3253 12.4504C18.2877 12.4037 18.267 12.3717 18.2559 12.3522C18.2571 12.3496 18.2584 12.3468 18.2598 12.3438C18.278 12.3057 18.3054 12.2585 18.3523 12.1814L18.3685 12.1589C18.3865 12.1339 18.4129 12.0972 18.4463 12.0502C18.5133 11.9562 18.609 11.821 18.7246 11.6553C18.9556 11.3242 19.2666 10.87 19.5862 10.3792C19.9051 9.8895 20.2359 9.35788 20.5046 8.87292C20.7593 8.41323 20.9869 7.94561 21.0716 7.5859C21.1486 7.32997 21.1888 6.9697 20.9661 6.66061C20.7349 6.33953 20.3479 6.25 19.9859 6.25H18.023C17.6802 6.25 17.389 6.33941 17.155 6.51339C16.927 6.68289 16.7942 6.90241 16.7104 7.09229ZM13.8251 11.3473C13.8274 11.3473 13.8297 11.3473 13.832 11.3473C13.8301 11.3474 13.8285 11.3473 13.8272 11.3473C13.8264 11.3473 13.8257 11.3473 13.8251 11.3473Z" stroke="black"/>
</svg>
