<svg width="32" height="32" viewBox="0 0 32 32" fill="none" xmlns="http://www.w3.org/2000/svg">
<path d="M16.001 27C16.001 27 3.50098 20 3.50098 11.5C3.50123 9.99768 4.02179 8.5418 4.97416 7.3799C5.92652 6.21801 7.2519 5.42181 8.72496 5.12669C10.198 4.83156 11.7278 5.05572 13.0543 5.76105C14.3808 6.46638 15.422 7.60935 16.001 8.99563L16.001 8.99565C16.5799 7.60936 17.6212 6.46639 18.9477 5.76106C20.2741 5.05572 21.8039 4.83156 23.277 5.12669C24.75 5.42181 26.0754 6.21801 27.0278 7.3799C27.9802 8.5418 28.5007 9.99768 28.501 11.5C28.501 20 16.001 27 16.001 27Z" stroke="black" stroke-linecap="round" stroke-linejoin="round"/>
</svg>
