<svg width="77" height="77" viewBox="0 0 77 77" fill="none" xmlns="http://www.w3.org/2000/svg">
<rect width="77" height="77" rx="38.5" fill="#898989"/>
<path d="M37.928 47.24C40.928 47.24 43.208 45.368 43.208 42.368C43.208 40.4 42.032 38.648 39.944 38.312V38.24C41.648 37.52 42.56 36.032 42.56 34.208C42.56 31.568 40.736 29.96 37.928 29.96C35.744 29.96 34.016 30.944 33.248 32.648L34.328 33.968C35.072 32.672 36.128 31.88 37.784 31.88C39.488 31.88 40.52 32.888 40.52 34.544C40.52 36.272 39.104 37.448 37.616 37.448H36.416V39.368H37.736C39.752 39.368 41.168 40.496 41.168 42.296C41.168 44 39.944 45.32 37.856 45.32C36.296 45.32 34.784 44.552 33.944 42.992L32.84 44.36C33.704 46.232 35.6 47.24 37.928 47.24Z" fill="white"/>
</svg>
